<svg xmlns="http://www.w3.org/2000/svg" width="200.155" height="200.155" viewBox="0 0 200.155 200.155"><defs><style>.a{fill:#dfedf2;}.b{fill:#47433b;}</style></defs><g transform="translate(0 0)"><ellipse class="a" cx="100.078" cy="100.078" rx="100.078" ry="100.078" transform="translate(0 0)"/><g transform="translate(24.093 51.658)"><g transform="translate(0 7.114)"><path class="b" d="M397.155,114.374a29.533,29.533,0,0,0-7.481-4.423,17.429,17.429,0,1,0-21.874-.007A29.414,29.414,0,0,0,349.468,137.1v2.34h35.6l.4-1.674q.322-1.352.744-2.681H353.905A25.012,25.012,0,0,1,373.647,112.7h10.188a24.623,24.623,0,0,1,7.022,2.647,24.9,24.9,0,0,1,5.161,3.582c.419-.434.829-.874,1.269-1.294l1.788-1.708ZM378.742,109.8a13.247,13.247,0,0,1-.138-26.494c.046,0,.091-.007.137-.007h0a13.25,13.25,0,0,1,0,26.5Z" transform="translate(-349.468 -78.944)"/><path class="b" d="M486.962,115.931l1.789,1.708c.44.42.849.86,1.269,1.294a24.905,24.905,0,0,1,5.161-3.582A24.623,24.623,0,0,1,502.2,112.7h10.188a25.012,25.012,0,0,1,19.741,22.379H499.824q.421,1.329.744,2.681l.4,1.674h35.6V137.1a29.414,29.414,0,0,0-18.332-27.154,17.43,17.43,0,1,0-21.874.007,29.532,29.532,0,0,0-7.481,4.423Zm7.084-19.383A13.25,13.25,0,0,1,507.3,83.3h0c.046,0,.091.007.137.007a13.247,13.247,0,1,1-13.388,13.244Z" transform="translate(-384.6 -78.944)"/></g><path class="b" d="M446.273,108.588a20.3,20.3,0,1,0-14.741,0,36.074,36.074,0,0,0-28.695,35.306v.216H424.2V132.889a8.14,8.14,0,1,1,16.28,0v9.8a8.115,8.115,0,0,1,3.822,1.044,8.291,8.291,0,0,1,7.975,0,8.12,8.12,0,0,1,8.571.374h14.122v-.216A36.074,36.074,0,0,0,446.273,108.588Z" transform="translate(-363.105 -69.388)"/><g transform="translate(50.061 57.538)"><path class="b" d="M429.92,159.914v15.568a15.493,15.493,0,0,0-1.312-1.129A8.719,8.719,0,0,0,422,173.192a6.615,6.615,0,0,0-4.628,3.382l-.663,1.254.975,1.03c1.7,1.789,3,4.743,4.249,7.6,1.328,3.024,2.7,6.152,4.707,8.361,3,3.3,7.606,5.642,9.815,6.642v7.7a1.975,1.975,0,1,0,3.95,0V198.809l-1.257-.491c-.063-.024-6.228-2.457-9.584-6.155-1.572-1.732-2.813-4.559-4.014-7.294a39.073,39.073,0,0,0-3.859-7.356,3.365,3.365,0,0,1,1.145-.46,5.012,5.012,0,0,1,3.356.427,8.466,8.466,0,0,1,3.188,4.583c.11.3.221.6.339.9a2.148,2.148,0,0,0,4.148-.785V152.637a2.012,2.012,0,1,1,4.025,0V172.2a1.975,1.975,0,1,0,3.95,0v-1.617a2.012,2.012,0,0,1,4.024,0V172.2a1.975,1.975,0,0,0,3.95,0v-1.617a2.012,2.012,0,0,1,4.025,0V172.2a1.975,1.975,0,1,0,3.95,0v-1.617a2.012,2.012,0,0,1,4.025,0v26.509l-2.746,2.092v9.978a1.975,1.975,0,1,0,3.95,0v-8.021l2.746-2.092V170.579a5.959,5.959,0,0,0-9.95-4.428,5.95,5.95,0,0,0-7.975,0,5.953,5.953,0,0,0-6-1.184v-12.33a5.963,5.963,0,1,0-11.925,0v7.277Z" transform="translate(-416.711 -146.674)"/></g></g></g></svg>