<svg xmlns="http://www.w3.org/2000/svg" width="200.155" height="200.155" viewBox="0 0 200.155 200.155"><defs><style>.a{fill:#dec39c;}.b{fill:#47433b;}</style></defs><g transform="translate(0 0)"><circle class="a" cx="100.078" cy="100.078" r="100.078" transform="translate(0 0)"/><g transform="translate(51.712 32.675)"><path class="b" d="M766.9,153.962a1.506,1.506,0,0,0-1.662-1.383,9.913,9.913,0,0,0-1.043.226c-.594.116-1.186.254-1.785.325a2.766,2.766,0,0,0-2.059,1.039,1.63,1.63,0,0,0,.054,1.962,3.023,3.023,0,0,0,1.278.8,3.211,3.211,0,0,1,1.567,1.316,6.4,6.4,0,0,0,.369.524,1.7,1.7,0,0,0,2.862-.038,2.852,2.852,0,0,0,.379-1.889c-.036-.585-.01-1.174,0-1.761A10.105,10.105,0,0,0,766.9,153.962Z" transform="translate(-714.783 -71.66)"/><path class="b" d="M771.327,153.454a2.635,2.635,0,0,0,1.4-.882,3.567,3.567,0,0,0,.261-.438,1.265,1.265,0,0,0-.03-1.345,1.132,1.132,0,0,0-1.165-.432,2.37,2.37,0,0,0-1.884,1.371,1.2,1.2,0,0,0,.086,1.4A1.272,1.272,0,0,0,771.327,153.454Z" transform="translate(-717.255 -71.089)"/><path class="b" d="M769.44,148.367a1.267,1.267,0,0,0-.619-1.194,1.132,1.132,0,0,0-1.237.125,2.373,2.373,0,0,0-1.089,2.059,1.2,1.2,0,0,0,.7,1.224,1.273,1.273,0,0,0,1.34-.3,2.637,2.637,0,0,0,.867-1.407A3.746,3.746,0,0,0,769.44,148.367Z" transform="translate(-716.43 -70.247)"/><path class="b" d="M772.972,155.861a1.745,1.745,0,0,0-1.811.066,1.637,1.637,0,0,0-.987,1.422.944.944,0,0,0,.523.9,2.036,2.036,0,0,0,2.417-.561c.029-.035.06-.068.086-.1A1.122,1.122,0,0,0,772.972,155.861Z" transform="translate(-717.37 -72.443)"/><path class="b" d="M762.607,147.881a2.083,2.083,0,0,0-.758,2.711,1.057,1.057,0,0,0,1.52.388,2.12,2.12,0,0,0,.919-2.032,1.42,1.42,0,0,0-.482-.956A1.035,1.035,0,0,0,762.607,147.881Z" transform="translate(-715.184 -70.426)"/><path class="b" d="M758.614,127.657a2.851,2.851,0,0,0,.379-1.889c-.036-.584-.01-1.174,0-1.761a10.309,10.309,0,0,0,.041-1.12,1.505,1.505,0,0,0-1.662-1.383,9.917,9.917,0,0,0-1.043.226c-.594.117-1.186.255-1.786.325a2.765,2.765,0,0,0-2.058,1.039,1.63,1.63,0,0,0,.053,1.962,3.019,3.019,0,0,0,1.278.8,3.209,3.209,0,0,1,1.567,1.316c.111.182.24.353.368.523A1.7,1.7,0,0,0,758.614,127.657Z" transform="translate(-712.773 -63.72)"/><path class="b" d="M762.039,120.652a1.2,1.2,0,0,0,.086,1.4,1.273,1.273,0,0,0,1.334.322,2.634,2.634,0,0,0,1.4-.882,3.738,3.738,0,0,0,.261-.438,1.267,1.267,0,0,0-.03-1.345,1.134,1.134,0,0,0-1.165-.433A2.372,2.372,0,0,0,762.039,120.652Z" transform="translate(-715.244 -63.149)"/><path class="b" d="M759.323,119.506a1.274,1.274,0,0,0,1.34-.3,2.631,2.631,0,0,0,.866-1.406,3.637,3.637,0,0,0,.042-.509,1.266,1.266,0,0,0-.619-1.194,1.132,1.132,0,0,0-1.237.124,2.373,2.373,0,0,0-1.089,2.06A1.2,1.2,0,0,0,759.323,119.506Z" transform="translate(-714.42 -62.307)"/><path class="b" d="M765.331,126.509a1.121,1.121,0,0,0-.227-1.723,1.744,1.744,0,0,0-1.812.066,1.635,1.635,0,0,0-.986,1.422.945.945,0,0,0,.522.9,2.037,2.037,0,0,0,2.418-.562C765.275,126.578,765.305,126.545,765.331,126.509Z" transform="translate(-715.359 -64.503)"/><path class="b" d="M755.5,119.905a2.121,2.121,0,0,0,.919-2.033,1.42,1.42,0,0,0-.482-.955,1.037,1.037,0,0,0-1.2-.112,2.084,2.084,0,0,0-.759,2.712A1.057,1.057,0,0,0,755.5,119.905Z" transform="translate(-713.173 -62.485)"/><path class="b" d="M789.472,111.183a1.506,1.506,0,0,0-1.662-1.384,9.928,9.928,0,0,0-1.043.226c-.594.116-1.186.254-1.786.325a2.765,2.765,0,0,0-2.058,1.039,1.63,1.63,0,0,0,.054,1.962,3.022,3.022,0,0,0,1.278.8,3.21,3.21,0,0,1,1.567,1.316,6.37,6.37,0,0,0,.369.524,1.7,1.7,0,0,0,2.862-.038,2.852,2.852,0,0,0,.379-1.889c-.036-.585-.01-1.174,0-1.761A10.069,10.069,0,0,0,789.472,111.183Z" transform="translate(-720.55 -60.729)"/><path class="b" d="M793.9,110.674a2.635,2.635,0,0,0,1.4-.882,3.592,3.592,0,0,0,.261-.439,1.265,1.265,0,0,0-.03-1.345,1.132,1.132,0,0,0-1.165-.432,2.372,2.372,0,0,0-1.883,1.371,1.2,1.2,0,0,0,.086,1.4A1.272,1.272,0,0,0,793.9,110.674Z" transform="translate(-723.022 -60.158)"/><path class="b" d="M792.011,105.587a1.267,1.267,0,0,0-.619-1.194,1.132,1.132,0,0,0-1.237.125,2.373,2.373,0,0,0-1.088,2.059,1.2,1.2,0,0,0,.7,1.224,1.274,1.274,0,0,0,1.34-.3,2.642,2.642,0,0,0,.867-1.407A3.7,3.7,0,0,0,792.011,105.587Z" transform="translate(-722.198 -59.316)"/><path class="b" d="M795.543,113.081a1.746,1.746,0,0,0-1.812.066,1.636,1.636,0,0,0-.986,1.422.943.943,0,0,0,.523.9,2.036,2.036,0,0,0,2.417-.561c.029-.034.06-.068.086-.1A1.121,1.121,0,0,0,795.543,113.081Z" transform="translate(-723.137 -61.512)"/><path class="b" d="M785.94,108.2a2.119,2.119,0,0,0,.919-2.032,1.423,1.423,0,0,0-.482-.956,1.037,1.037,0,0,0-1.2-.111,2.083,2.083,0,0,0-.759,2.711A1.057,1.057,0,0,0,785.94,108.2Z" transform="translate(-720.951 -59.495)"/><path class="b" d="M761.977,141.123a.45.45,0,0,0,.342-.539l-2.245-6.726a.451.451,0,0,0-.881.2l2.246,6.726A.45.45,0,0,0,761.977,141.123Z" transform="translate(-714.561 -66.788)"/><path class="b" d="M776.553,114.3l-8.5,1.335a.451.451,0,0,0,.236.87l8.5-1.335a.451.451,0,1,0-.237-.87Z" transform="translate(-716.742 -61.878)"/><path class="b" d="M792.6,98.91a.451.451,0,0,0,.134-.31l.232-7.163a.451.451,0,0,0-.9-.022l-.233,7.163a.451.451,0,0,0,.768.331Z" transform="translate(-722.904 -55.921)"/><path class="b" d="M796.829,74.452c0-.031,0-.061,0-.092a5.8,5.8,0,0,0-11.588,0s-.447,3.6,5.771,9.649C796.693,78.522,796.849,75.049,796.829,74.452Zm-5.816,3.377a3.558,3.558,0,1,1,3.58-3.558A3.569,3.569,0,0,1,791.013,77.829Z" transform="translate(-721.218 -50.278)"/><path class="b" d="M794.883,101.443a8.731,8.731,0,0,0-4.816-7.8l3.361-3.361a8.72,8.72,0,0,0-6.11-14.886v-20a11.514,11.514,0,0,0-11.5-11.5h-44.4a11.515,11.515,0,0,0-11.5,11.5V94.817c-2.565,4.8-6.746,13.888-8.138,19.457-1.479,5.917-1.872,17.59-1.957,21.073l-9.906,11.029a2.616,2.616,0,1,0,3.892,3.5l11.207-12.478.016-.978c0-.145.254-14.594,1.823-20.873,1.336-5.345,5.57-14.326,7.81-18.5,2.08,1.636,3.976,5.316,4.251,8.706.461,5.683-3.031,11.3-3.064,11.349l-.73,1.147.52,1.257c2.556,6.177,8.776,24,6.887,32.186l-.739,3.2H762.2c-3.093,4.163-10.637,10.733-27.589,11.359a17.779,17.779,0,0,1-7-4.3,2.616,2.616,0,0,0-3.664,3.734,23.546,23.546,0,0,0,5.867,4.24l-3.944,4.418a2.616,2.616,0,0,0,3.9,3.484l5.684-6.367c22.513-1.027,30.458-11.878,32.812-16.426h7.546a11.516,11.516,0,0,0,11.391-9.925l0,0,5.117-5.117a8.727,8.727,0,0,0-2.233-13.953l2.233-2.233a8.726,8.726,0,0,0-2.233-13.952l2.233-2.233A8.661,8.661,0,0,0,794.883,101.443ZM759.931,147.37H749.917a2.615,2.615,0,1,1,0-5.231h10.013a2.615,2.615,0,1,1,0,5.231Zm12.69-6.094v-.1c.01.036.024.071.034.107Zm2.257-12.364a8.73,8.73,0,0,0,2.234,1.619l-2.234,2.233a8.72,8.72,0,0,0-1.335,1.718H736.061a136.929,136.929,0,0,0-5.1-15.784c1.235-2.321,3.638-7.663,3.175-13.374a19.832,19.832,0,0,0-2.926-8.6,12.364,12.364,0,0,0-6.055-5.333V60.42h56.937V93.729A8.736,8.736,0,0,0,780,95.276l-5.117,5.116a8.727,8.727,0,0,0,2.234,13.953l-2.234,2.233a8.721,8.721,0,0,0,0,12.333Zm13.751,7.37-4.77,4.77a2.617,2.617,0,0,0-1.344,1.042,3.487,3.487,0,0,1-4.81-4.168c.007-.02.014-.039.021-.06a3.47,3.47,0,0,1,.852-1.4l5.118-5.117a3.532,3.532,0,0,1,.739-.562c.177-.074.351-.156.523-.243a3.488,3.488,0,0,1,3.672,5.741Zm0-16.187-5.118,5.117a3.517,3.517,0,0,1-.74.563c-.177.074-.351.156-.523.243a3.489,3.489,0,0,1-3.672-5.741l5.118-5.117a3.514,3.514,0,0,1,.738-.561c.179-.075.354-.157.526-.244a3.488,3.488,0,0,1,3.671,5.741Zm0-16.186-5.116,5.117a3.5,3.5,0,0,1-.739.561c-.178.075-.352.158-.525.244a3.488,3.488,0,0,1-3.672-5.741l5.118-5.117a3.489,3.489,0,1,1,4.934,4.935Zm-1.311-14.917V80.631a3.485,3.485,0,0,1,2.41,5.952Z" transform="translate(-699.247 -43.89)"/></g></g></svg>