<svg xmlns="http://www.w3.org/2000/svg" width="246.679" height="73.09" viewBox="0 0 246.679 73.09"><defs><style>.a{fill:#fff;}</style></defs><path d="M237.9,73.09H8.641A8.661,8.661,0,0,1,0,64.442V8.636A8.649,8.649,0,0,1,8.641,0H237.9a8.767,8.767,0,0,1,8.776,8.636V64.442A8.779,8.779,0,0,1,237.9,73.09Z"/><path class="a" d="M244.174,63.707a7,7,0,0,1-7.006,7H7.9a7.007,7.007,0,0,1-7.015-7V7.9A7.016,7.016,0,0,1,7.9.89H237.167A7.006,7.006,0,0,1,244.172,7.9l0,55.81Z" transform="translate(0.736 0.736)"/><g transform="translate(23.374 11.36)"><path d="M44.469,25.917a10.592,10.592,0,0,1,5.045-8.888,10.849,10.849,0,0,0-8.544-4.619c-3.594-.378-7.081,2.151-8.912,2.151-1.867,0-4.687-2.114-7.726-2.052a11.375,11.375,0,0,0-9.575,5.84c-4.141,7.168-1.052,17.7,2.914,23.5,1.984,2.838,4.3,6.006,7.338,5.895,2.969-.122,4.078-1.893,7.662-1.893,3.55,0,4.592,1.893,7.687,1.822,3.187-.051,5.193-2.851,7.108-5.714a23.448,23.448,0,0,0,3.251-6.62A10.239,10.239,0,0,1,44.469,25.917Z" transform="translate(-12.792 -1.126)"/><path d="M30.089,13.689a10.426,10.426,0,0,0,2.386-7.472,10.62,10.62,0,0,0-6.867,3.552,9.922,9.922,0,0,0-2.449,7.2A8.772,8.772,0,0,0,30.089,13.689Z" transform="translate(-4.259 -6.217)"/></g><g transform="translate(77.494 32.892)"><path d="M62.939,42.513H58.79L56.516,35.37h-7.9L46.45,42.513H42.41L50.238,18.2h4.835ZM55.831,32.374l-2.056-6.35q-.326-.973-1.226-4.581h-.073q-.359,1.551-1.155,4.581L49.3,32.374Z" transform="translate(-42.41 -17.84)"/><path d="M72.307,30.623a9.964,9.964,0,0,1-2.417,7.07A7.069,7.069,0,0,1,64.513,40a5.375,5.375,0,0,1-4.979-2.489h-.073V46.75h-3.9V27.843q0-2.812-.144-5.772h3.426l.217,2.779h.073a6.932,6.932,0,0,1,11.093-.687A9.66,9.66,0,0,1,72.307,30.623Zm-3.969.143a7.219,7.219,0,0,0-1.155-4.221,3.988,3.988,0,0,0-3.391-1.732,4.051,4.051,0,0,0-2.615.956,4.433,4.433,0,0,0-1.533,2.509,5.1,5.1,0,0,0-.181,1.188v2.924a4.685,4.685,0,0,0,1.173,3.231,3.888,3.888,0,0,0,3.048,1.317,3.988,3.988,0,0,0,3.426-1.7A7.463,7.463,0,0,0,68.338,30.765Z" transform="translate(-31.647 -14.932)"/><path d="M83.343,30.623a9.957,9.957,0,0,1-2.419,7.07A7.062,7.062,0,0,1,75.55,40a5.371,5.371,0,0,1-4.977-2.489H70.5V46.75H66.6V27.843q0-2.812-.144-5.772h3.426L70.1,24.85h.073a6.933,6.933,0,0,1,11.1-.687A9.688,9.688,0,0,1,83.343,30.623Zm-3.969.143a7.219,7.219,0,0,0-1.157-4.221,3.983,3.983,0,0,0-3.39-1.732,4.056,4.056,0,0,0-2.617.956,4.43,4.43,0,0,0-1.531,2.509,5.2,5.2,0,0,0-.181,1.188v2.924a4.7,4.7,0,0,0,1.169,3.231,3.9,3.9,0,0,0,3.052,1.317,3.988,3.988,0,0,0,3.426-1.7A7.463,7.463,0,0,0,79.374,30.765Z" transform="translate(-22.515 -14.932)"/><path d="M94.869,35.855a6.481,6.481,0,0,1-2.16,5.051,9.572,9.572,0,0,1-6.624,2.129,11.6,11.6,0,0,1-6.3-1.515l.9-3.247a10.679,10.679,0,0,0,5.632,1.553,5.324,5.324,0,0,0,3.43-.994,3.246,3.246,0,0,0,1.224-2.657,3.387,3.387,0,0,0-1.01-2.492,9.393,9.393,0,0,0-3.355-1.88q-6.386-2.382-6.384-6.973a6.17,6.17,0,0,1,2.238-4.913A8.824,8.824,0,0,1,88.413,18a11.8,11.8,0,0,1,5.518,1.155l-.974,3.176A9.575,9.575,0,0,0,88.3,21.213a4.711,4.711,0,0,0-3.209,1.01,2.887,2.887,0,0,0-.974,2.2,2.972,2.972,0,0,0,1.116,2.381,12.618,12.618,0,0,0,3.538,1.877,12,12,0,0,1,4.617,2.956A6.177,6.177,0,0,1,94.869,35.855Z" transform="translate(-11.493 -18.001)"/><path d="M99.922,26.81H95.628v8.513q0,3.248,2.273,3.247a6.929,6.929,0,0,0,1.73-.181l.108,2.958a8.827,8.827,0,0,1-3.03.431A4.674,4.674,0,0,1,93.1,40.371q-1.3-1.409-1.3-4.727V26.806H89.244V23.882H91.8v-3.21l3.826-1.155v4.365h4.294V26.81Z" transform="translate(-3.666 -16.747)"/><path d="M113.466,30.693a9.619,9.619,0,0,1-2.31,6.638A8.246,8.246,0,0,1,104.732,40a7.841,7.841,0,0,1-6.149-2.56,9.324,9.324,0,0,1-2.291-6.458,9.524,9.524,0,0,1,2.363-6.673,8.177,8.177,0,0,1,6.366-2.6,8.008,8.008,0,0,1,6.205,2.562A9.218,9.218,0,0,1,113.466,30.693Zm-4.042.126a7.887,7.887,0,0,0-1.045-4.161,3.848,3.848,0,0,0-3.5-2.1,3.906,3.906,0,0,0-3.572,2.1,8.038,8.038,0,0,0-1.045,4.234,7.876,7.876,0,0,0,1.045,4.159,3.982,3.982,0,0,0,7.035-.037A7.915,7.915,0,0,0,109.424,30.819Z" transform="translate(2.164 -14.931)"/><path d="M116.868,25.5a6.765,6.765,0,0,0-1.228-.108,3.681,3.681,0,0,0-3.176,1.553,5.838,5.838,0,0,0-.974,3.463v9.2H107.6l.037-12.012q0-3.031-.146-5.52h3.393l.143,3.355h.108a6,6,0,0,1,1.948-2.777,4.71,4.71,0,0,1,2.816-.939,6.255,6.255,0,0,1,.974.071V25.5Z" transform="translate(11.425 -14.932)"/><path d="M129.211,30.023a9.136,9.136,0,0,1-.143,1.767H117.381a5.087,5.087,0,0,0,1.7,3.971,5.789,5.789,0,0,0,3.823,1.226,12.926,12.926,0,0,0,4.729-.83l.61,2.7a14.62,14.62,0,0,1-5.878,1.084,8.516,8.516,0,0,1-6.406-2.4,8.861,8.861,0,0,1-2.326-6.439,10.045,10.045,0,0,1,2.167-6.6,7.466,7.466,0,0,1,6.13-2.812,6.534,6.534,0,0,1,5.739,2.812A9.483,9.483,0,0,1,129.211,30.023Zm-3.715-1.01a5.293,5.293,0,0,0-.756-2.995,3.4,3.4,0,0,0-3.1-1.624,3.7,3.7,0,0,0-3.1,1.588,5.814,5.814,0,0,0-1.153,3.03H125.5Z" transform="translate(16.505 -14.947)"/></g><g transform="translate(79.807 11.979)"><path d="M53.5,12.626a6,6,0,0,1-1.933,4.857,7.689,7.689,0,0,1-5.085,1.506,23.578,23.578,0,0,1-2.8-.143V7.095a20.671,20.671,0,0,1,3.3-.249,7.11,7.11,0,0,1,4.733,1.365A5.516,5.516,0,0,1,53.5,12.626Zm-2.019.053A4.367,4.367,0,0,0,50.369,9.47a4.365,4.365,0,0,0-3.236-1.116,8.1,8.1,0,0,0-1.542.124v8.933a10.11,10.11,0,0,0,1.294.053,4.53,4.53,0,0,0,3.393-1.222A4.9,4.9,0,0,0,51.477,12.679Z" transform="translate(-43.676 -6.316)"/><path d="M58.728,13.034A4.725,4.725,0,0,1,57.594,16.3a4.05,4.05,0,0,1-3.156,1.312,3.849,3.849,0,0,1-3.022-1.259,4.585,4.585,0,0,1-1.124-3.172A4.679,4.679,0,0,1,51.452,9.9a4.024,4.024,0,0,1,3.128-1.275A3.939,3.939,0,0,1,57.63,9.88,4.548,4.548,0,0,1,58.728,13.034Zm-1.986.062a3.9,3.9,0,0,0-.513-2.045,1.891,1.891,0,0,0-1.718-1.031,1.921,1.921,0,0,0-1.756,1.031,3.948,3.948,0,0,0-.513,2.079,3.9,3.9,0,0,0,.513,2.045,1.933,1.933,0,0,0,1.738,1.031,1.911,1.911,0,0,0,1.718-1.049A3.871,3.871,0,0,0,56.742,13.1Z" transform="translate(-38.203 -4.846)"/><path d="M68.415,8.719l-2.7,8.614H63.966l-1.116-3.74a27.991,27.991,0,0,1-.693-2.783h-.035a20.376,20.376,0,0,1-.693,2.783l-1.186,3.74H58.469L55.935,8.719H57.9l.974,4.095q.354,1.453.585,2.765H59.5q.214-1.08.711-2.746L61.43,8.721h1.56l1.171,4.024q.425,1.472.691,2.836H64.9a27.1,27.1,0,0,1,.585-2.836l1.045-4.024h1.88Z" transform="translate(-33.535 -4.767)"/><path d="M71.616,17.415H69.7V12.481q0-2.28-1.736-2.28a1.728,1.728,0,0,0-1.383.627A2.224,2.224,0,0,0,66.05,12.3v5.109H64.135V11.262q0-1.135-.069-2.465h1.683l.09,1.347h.053a2.767,2.767,0,0,1,.992-1.04A3.237,3.237,0,0,1,68.62,8.62a2.749,2.749,0,0,1,2,.78,3.791,3.791,0,0,1,.992,2.854Z" transform="translate(-26.808 -4.849)"/><path d="M71.954,19.122H70.041V6.556h1.913Z" transform="translate(-21.865 -6.556)"/><path d="M81.077,13.034A4.725,4.725,0,0,1,79.943,16.3a4.053,4.053,0,0,1-3.156,1.312,3.844,3.844,0,0,1-3.022-1.259,4.585,4.585,0,0,1-1.124-3.172A4.679,4.679,0,0,1,73.8,9.9a4.023,4.023,0,0,1,3.126-1.275A3.943,3.943,0,0,1,79.979,9.88,4.548,4.548,0,0,1,81.077,13.034Zm-1.988.062a3.9,3.9,0,0,0-.513-2.045,1.888,1.888,0,0,0-1.716-1.031A1.917,1.917,0,0,0,75.1,11.051a3.948,3.948,0,0,0-.513,2.079,3.9,3.9,0,0,0,.513,2.045,1.933,1.933,0,0,0,1.738,1.031,1.908,1.908,0,0,0,1.716-1.049A3.855,3.855,0,0,0,79.089,13.1Z" transform="translate(-19.715 -4.846)"/><path d="M85.531,17.412H83.812l-.143-.992h-.053A2.949,2.949,0,0,1,81.1,17.608a2.6,2.6,0,0,1-1.966-.78,2.446,2.446,0,0,1-.674-1.754,2.676,2.676,0,0,1,1.321-2.41,6.856,6.856,0,0,1,3.715-.815v-.161q0-1.7-1.789-1.7a4.006,4.006,0,0,0-2.246.638l-.389-1.257a5.524,5.524,0,0,1,2.955-.744q3.377,0,3.38,3.563v3.172A13.455,13.455,0,0,0,85.531,17.412Zm-1.988-2.96V13.124q-3.168-.055-3.168,1.736a1.3,1.3,0,0,0,.367,1.01,1.34,1.34,0,0,0,.936.336,1.934,1.934,0,0,0,1.171-.4,1.635,1.635,0,0,0,.694-1.356Z" transform="translate(-14.901 -4.846)"/><path d="M92.008,19.122h-1.7l-.09-1.383h-.053A2.863,2.863,0,0,1,87.4,19.318,3.242,3.242,0,0,1,84.812,18.1a4.763,4.763,0,0,1-1.027-3.172A4.994,4.994,0,0,1,84.9,11.537a3.433,3.433,0,0,1,2.659-1.206A2.582,2.582,0,0,1,89.987,11.5h.037V6.556H91.94V16.8Q91.94,18.059,92.008,19.122Zm-1.984-3.633V14.053a2.819,2.819,0,0,0-.053-.6,2.181,2.181,0,0,0-.693-1.16A1.882,1.882,0,0,0,88,11.82a1.965,1.965,0,0,0-1.685.851,3.649,3.649,0,0,0-.614,2.18,3.4,3.4,0,0,0,.588,2.074,1.971,1.971,0,0,0,1.674.85,1.845,1.845,0,0,0,1.513-.709A2.361,2.361,0,0,0,90.023,15.489Z" transform="translate(-10.496 -6.556)"/><path d="M101.067,13.034A4.725,4.725,0,0,1,99.933,16.3a4.047,4.047,0,0,1-3.156,1.312,3.855,3.855,0,0,1-3.022-1.259,4.585,4.585,0,0,1-1.124-3.172A4.679,4.679,0,0,1,93.791,9.9a4.026,4.026,0,0,1,3.13-1.275A3.935,3.935,0,0,1,99.969,9.88,4.548,4.548,0,0,1,101.067,13.034Zm-1.984.062a3.9,3.9,0,0,0-.513-2.045,1.894,1.894,0,0,0-1.719-1.031,1.925,1.925,0,0,0-1.756,1.031,3.948,3.948,0,0,0-.513,2.079,3.9,3.9,0,0,0,.513,2.045,1.957,1.957,0,0,0,3.457-.018A3.888,3.888,0,0,0,99.083,13.1Z" transform="translate(-3.178 -4.846)"/><path d="M106.3,17.415h-1.913V12.481q0-2.28-1.738-2.28a1.722,1.722,0,0,0-1.381.627,2.215,2.215,0,0,0-.532,1.476v5.109H98.82V11.262q0-1.135-.068-2.465h1.681l.09,1.347h.053a2.8,2.8,0,0,1,.992-1.04,3.243,3.243,0,0,1,1.738-.484,2.747,2.747,0,0,1,2,.78,3.784,3.784,0,0,1,.992,2.854Z" transform="translate(1.886 -4.849)"/><path d="M112.311,11.125H110.2v4.184c0,1.063.375,1.6,1.116,1.6a3.372,3.372,0,0,0,.853-.09l.049,1.453a4.3,4.3,0,0,1-1.487.214,2.289,2.289,0,0,1-1.771-.691,3.378,3.378,0,0,1-.64-2.322V11.125h-1.259V9.69h1.259V8.111l1.877-.566V9.688h2.109v1.436Z" transform="translate(8.763 -5.738)"/><path d="M118.871,19.122h-1.917v-4.9q0-2.316-1.734-2.317a1.828,1.828,0,0,0-1.827,1.343,2.407,2.407,0,0,0-.09.689v5.18H111.39V6.556H113.3v5.191h.037a2.9,2.9,0,0,1,2.587-1.416,2.669,2.669,0,0,1,1.97.78A3.923,3.923,0,0,1,118.871,14v5.122Z" transform="translate(12.341 -6.556)"/><path d="M124.674,12.705a4.624,4.624,0,0,1-.071.868H118.86a2.512,2.512,0,0,0,.831,1.95,2.853,2.853,0,0,0,1.88.6,6.344,6.344,0,0,0,2.322-.407l.3,1.33a7.212,7.212,0,0,1-2.891.532,4.175,4.175,0,0,1-3.145-1.179,4.342,4.342,0,0,1-1.142-3.163A4.93,4.93,0,0,1,118.079,10a3.662,3.662,0,0,1,3.011-1.381A3.2,3.2,0,0,1,123.907,10,4.6,4.6,0,0,1,124.674,12.705Zm-1.827-.5a2.578,2.578,0,0,0-.371-1.471,1.672,1.672,0,0,0-1.524-.8,1.818,1.818,0,0,0-1.524.78,2.9,2.9,0,0,0-.568,1.489h3.987Z" transform="translate(16.995 -4.854)"/></g></svg>