<svg xmlns="http://www.w3.org/2000/svg" width="200.155" height="200.155" viewBox="0 0 200.155 200.155"><defs><style>.a{fill:#f2e9dd;}.b{fill:#47433b;}</style></defs><ellipse class="a" cx="100.078" cy="100.078" rx="100.078" ry="100.078"/><g transform="translate(63.156 41.995)"><g transform="translate(0 25.526)"><path class="b" d="M122.346,133.735v-2.9h41.147v2.9Z" transform="translate(-94.417 -100.953)"/><path class="b" d="M122.345,187.323v-2.958h32.944v2.958Z" transform="translate(-94.417 -114.63)"/><path class="b" d="M122.39,160.528V157.62h41.069v2.908Z" transform="translate(-94.428 -107.796)"/><path class="b" d="M122.348,196.04v-3.006h23.541v3.006Z" transform="translate(-94.418 -116.845)"/><path class="b" d="M154.209,166.312v2.924H122.478v-2.924Z" transform="translate(-94.451 -110.017)"/><path class="b" d="M122.376,142.455v-2.937h31.737v2.937Z" transform="translate(-94.425 -103.171)"/><path class="b" d="M178.244,93.782c3.373.014,4.685,1.317,4.686,4.675q0,19.9,0,39.8h3.064q0-19.538,0-39.076c0-.708.016-1.417-.033-2.123-.211-3.086-2.184-5.8-5.248-6.046-4.378-.354-8.8-.09-13.358-.09.124.969.237,1.842.368,2.857C171.31,93.778,174.777,93.766,178.244,93.782Z" transform="translate(-105.917 -90.729)"/><path class="b" d="M161.286,176.642c-.659,1.234-1.945,1.745-4.077,1.746q-32.331.01-64.663,0c-3.387,0-4.644-1.271-4.645-4.672q-.008-37.64,0-75.279c0-3.364,1.31-4.672,4.67-4.688,3.468-.016,6.935,0,10.537,0,.133-1,.247-1.874.4-3.049h-10.5c-5.759,0-8.177,2.43-8.177,8.234q0,37.157,0,74.314c0,5.811,2.392,8.216,8.178,8.217q31.849,0,63.7,0c4.5,0,6.95-1.458,7.822-4.818Z" transform="translate(-84.832 -90.696)"/></g><g transform="translate(18.918 0)"><path class="b" d="M147.4,91.257c0,5.195-3.471,7.8-7.892,6.774-.756-.176-1.516-.352-2.249-.6a11.665,11.665,0,0,0-7.436-.019,10.958,10.958,0,0,1-5.425.751,5.922,5.922,0,0,1-4.722-5.347c-.181-3.133,1.253-5.509,3.32-7.694,1.507-1.594,2.838-3.357,4.221-5.065A35.95,35.95,0,0,1,129.6,77a5.469,5.469,0,0,1,7.856-.015,37.326,37.326,0,0,1,2.5,3.218c1.341,1.659,2.639,3.364,4.1,4.909C145.952,87.1,147.347,89.271,147.4,91.257Z" transform="translate(-112.65 -61.242)"/><path class="b" d="M150.079,62.056a9.583,9.583,0,0,1-1.84,5.715c-1.12,1.444-2.529,2.532-4.47,2.211-2.033-.336-3.051-1.83-3.512-3.716a8.619,8.619,0,0,1,2.059-8.211,4.115,4.115,0,0,1,4.256-1.51c1.9.5,2.73,1.959,3.215,3.679A13.554,13.554,0,0,1,150.079,62.056Z" transform="translate(-117.836 -56.409)"/><path class="b" d="M132.124,59.938a9.58,9.58,0,0,1,.862,5.941c-.371,1.79-1.157,3.387-3.041,3.952-1.973.593-3.545-.3-4.789-1.792a8.618,8.618,0,0,1-1.764-8.279,4.114,4.114,0,0,1,3.157-3.229c1.924-.391,3.313.558,4.506,1.89A13.351,13.351,0,0,1,132.124,59.938Z" transform="translate(-113.504 -56.417)"/><path class="b" d="M162.861,75.57c-.017,3.407-2.418,6.6-5.433,7.2a3.427,3.427,0,0,1-3.552-1.292c-1.53-1.941-1.423-4.111-.561-6.263.9-2.245,2.373-4.011,4.9-4.406,2.56-.4,4.491,1.461,4.649,4.276C162.869,75.245,162.861,75.408,162.861,75.57Z" transform="translate(-121.089 -60.074)"/><path class="b" d="M114.273,70.751a5.159,5.159,0,0,1,3.57,1.541,7.711,7.711,0,0,1,2.173,7.81,3.842,3.842,0,0,1-5.144,2.459,7.57,7.57,0,0,1-4.2-9.328A3.765,3.765,0,0,1,114.273,70.751Z" transform="translate(-110.243 -60.073)"/></g><path class="b" d="M109.711,128.014H99.752a1.659,1.659,0,0,0-1.659,1.659v9.959a1.659,1.659,0,0,0,1.659,1.66h9.959a1.66,1.66,0,0,0,1.66-1.66v-9.959A1.659,1.659,0,0,0,109.711,128.014Zm-1.659,9.959h-6.639v-6.639h6.639Z" transform="translate(-88.22 -74.705)"/><path class="b" d="M109.711,154.535H99.752a1.659,1.659,0,0,0-1.659,1.659v9.959a1.659,1.659,0,0,0,1.659,1.66h9.959a1.659,1.659,0,0,0,1.66-1.66v-9.959A1.659,1.659,0,0,0,109.711,154.535Zm-1.659,9.959h-6.639v-6.639h6.639Z" transform="translate(-88.22 -81.482)"/><path class="b" d="M109.711,181.918H99.752a1.659,1.659,0,0,0-1.659,1.659v9.959a1.659,1.659,0,0,0,1.659,1.66h9.959a1.659,1.659,0,0,0,1.66-1.66v-9.959A1.659,1.659,0,0,0,109.711,181.918Zm-1.659,9.959h-6.639v-6.639h6.639Z" transform="translate(-88.22 -88.478)"/><g transform="translate(64.014 74.274)"><path class="b" d="M188.849,157.991a16.217,16.217,0,1,1-16.217,16.216,16.235,16.235,0,0,1,16.217-16.216m0-1.816a18.033,18.033,0,1,0,18.033,18.032,18.033,18.033,0,0,0-18.033-18.032Z" transform="translate(-170.816 -156.175)"/><path class="b" d="M190.032,160.806a14.585,14.585,0,1,0,14.584,14.584A14.585,14.585,0,0,0,190.032,160.806Zm7.4,12L188.54,181.7l-.009.009a1.7,1.7,0,0,1-2.4,0l-.32-.32h0l-3.179-3.179a1.7,1.7,0,1,1,2.4-2.4l2.3,2.3,7.7-7.7a1.7,1.7,0,1,1,2.4,2.4Z" transform="translate(-172 -157.358)"/></g></g></svg>